<svg xmlns="http://www.w3.org/2000/svg" xmlns:xlink="http://www.w3.org/1999/xlink" id="svg2" width="24" height="24" fill="#FFF" version="1.1" viewBox="0 0 24 24"><metadata id="metadata14"/><defs id="defs4"><path id="a" d="M0 0h24v24H0V0z"/></defs><clipPath id="b"><use id="use8" overflow="visible" xlink:href="#a"/></clipPath><path id="path10" fill="#5eb220" fill-opacity="1" d="M 12,2 C 6.5,2 2,6.5 2,12 2,17.5 6.5,22 12,22 17.5,22 22,17.5 22,12 22,6.5 17.5,2 12,2 Z" clip-path="url(#b)"/><path id="path3355" fill="#fff" fill-opacity="1" d="m 17,10.142818 -2.857143,0 0,-4.285636 -4.285714,0 0,4.285636 -2.857143,0 5,5 5,-5 z M 7,16.571455 7,18 l 10,0 0,-1.428545 -10,0 z"/><path id="path3357" fill="none" d="M 0,0 24,0 24,24 0,24 Z"/></svg>